<mxfile host="app.diagrams.net" modified="2024-03-27T17:18:44.977Z" agent="Mozilla/5.0 (Macintosh; Intel Mac OS X 10_15_7) AppleWebKit/537.36 (KHTML, like Gecko) Chrome/122.0.0.0 Safari/537.36" version="24.0.7" etag="YNkbi5pV162y1BOj-SKX" type="github">
  <diagram name="Page-1" id="KA9qjbXc1Ng9QKB6G95N">
    <mxGraphModel>
      <root>
        <mxCell id="0" />
        <mxCell id="1" parent="0" />
      </root>
    </mxGraphModel>
  </diagram>
</mxfile>
